<?xml version="1.0" encoding="utf-8"?>
<!-- Generator: Adobe Illustrator 16.0.4, SVG Export Plug-In . SVG Version: 6.00 Build 0)  -->
<!DOCTYPE svg PUBLIC "-//W3C//DTD SVG 1.1//EN" "http://www.w3.org/Graphics/SVG/1.1/DTD/svg11.dtd">
<svg version="1.1" id="Layer_1" xmlns="http://www.w3.org/2000/svg" xmlns:xlink="http://www.w3.org/1999/xlink" x="0px" y="0px"
	 width="2961.996px" height="614.85px" viewBox="0 0 2961.996 614.85" enable-background="new 0 0 2961.996 614.85"
	 xml:space="preserve">
<g>
	<path d="M2961.996,614.85H0V0h2961.996V614.85z M9,605.85h2943.996V9H9V605.85z"/>
</g>
<g>
	<path fill="#172625" stroke="#172625" stroke-width="36" stroke-miterlimit="10" d="M131.271,543.689v-28.711h57.595V110.933
		h-57.595V82.047h288.504v28.886h28.886v28.886h28.886V284.07h-28.886v28.886h-28.886v28.886H275.524v-28.886H390.89V284.07h28.887
		V139.818H390.89v-28.886H246.638v404.046h57.771v28.711H131.271z"/>
</g>
<g>
	<rect x="612.517" y="212.543" width="2345.979" height="9"/>
</g>
<g>
	<path fill="#2C2F24" stroke="#172625" stroke-miterlimit="10" d="M703.175,386.043v-18.58h-6.206v-18.618h-6.206v-18.58h-6.206
		v-18.619h-6.206v-18.58h-12.336v-6.206h37.161v6.206h-12.412v18.58h6.206v18.619h6.206v18.58h6.206v18.618h6.168v18.58H703.175z
		 M715.549,367.463v-18.618h6.206v18.618H715.549z M734.167,311.646v-18.58h-12.412v-6.206h30.993v6.206h-12.375v18.58H734.167z
		 M721.755,348.845v-18.58h6.206v18.58H721.755z M727.961,330.265v-18.619h6.206v18.619H727.961z"/>
	<path fill="#2C2F24" stroke="#172625" stroke-miterlimit="10" d="M769.807,386.043v-6.168h12.374v-86.81h-12.374v-6.206h37.198
		v6.206h-12.412v86.81h12.412v6.168H769.807z"/>
	<path fill="#2C2F24" stroke="#172625" stroke-miterlimit="10" d="M833.335,386.043v-12.374h-6.168v-12.412h6.168v6.206h6.206v6.206
		h6.206v6.206h30.993v-6.206h6.206v-21.722h-6.206v-6.169h-12.375v-6.205h-12.412v-6.206h-12.412v-6.206h-6.206v-6.206h-6.168
		v-21.684h6.168v-6.206h6.206v-6.206h43.405v6.206h6.206v12.412h-6.206v-6.206h-6.206v-6.206h-30.993v6.206h-6.206v15.478h6.206
		v6.206h12.412v6.206h12.375v6.206h12.412v6.206h6.206v6.205h6.206v27.891h-6.206v6.206h-6.206v6.168H833.335z"/>
	<path fill="#2C2F24" stroke="#172625" stroke-miterlimit="10" d="M912.417,386.043v-6.168h12.374v-86.81h-12.374v-6.206h37.198
		v6.206h-12.412v86.81h12.412v6.168H912.417z"/>
	<path fill="#2C2F24" stroke="#172625" stroke-miterlimit="10" d="M982.152,379.875v-6.206h-6.206v-6.206h-6.206v-12.412h-6.168
		v-37.198h6.168v-12.375h6.206v-6.206h6.206v-6.206h12.412v6.206h-6.207v6.206h-6.205v12.375h-6.206v37.198h6.206v12.412h6.205
		v6.206h6.207v6.206H982.152z M994.564,293.065v-6.206h30.991v6.206H994.564z M994.564,386.043v-6.168h30.991v6.168H994.564z
		 M1025.557,379.875v-6.206h6.206v-6.206h6.206v-12.412h6.168v-37.198h-6.168v-12.375h-6.206v-6.206h-6.206v-6.206h12.412v6.206
		h6.168v6.206h6.206v12.375h6.206v37.198h-6.206v12.412h-6.206v6.206h-6.168v6.206H1025.557z"/>
	<path fill="#2C2F24" stroke="#172625" stroke-miterlimit="10" d="M1070.505,386.043v-6.168h12.374v-86.81h-12.374v-6.206h30.992
		v12.412h6.206v12.375h6.168v12.412h6.206v12.411h6.206v12.375h6.206v12.412h6.206v12.412h6.206v-80.604h-12.412v-6.206h30.993
		v6.206h-12.412v92.978h-18.581v-12.374h-6.206v-12.412h-6.206v-12.412h-6.206V336.47h-6.168v-12.412h-6.206v-12.412h-6.206v-12.374
		h-6.206v80.604h12.412v6.168L1070.505,386.043L1070.505,386.043z"/>
	<path fill="#2C2F24" stroke="#172625" stroke-miterlimit="10" d="M1186.71,386.043v-12.374h-6.168v-12.412h6.168v6.206h6.206v6.206
		h6.206v6.206h30.992v-6.206h6.206v-21.722h-6.206v-6.169h-12.374v-6.205h-12.412v-6.206h-12.412v-6.206h-6.206v-6.206h-6.168
		v-21.684h6.168v-6.206h6.206v-6.206h43.404v6.206h6.206v12.412h-6.206v-6.206h-6.206v-6.206h-30.992v6.206h-6.206v15.478h6.206
		v6.206h12.412v6.206h12.374v6.206h12.412v6.206h6.206v6.205h6.206v27.891h-6.206v6.206h-6.206v6.168H1186.71z"/>
	<path fill="#2C2F24" stroke="#172625" stroke-miterlimit="10" d="M1323.152,379.875v-6.206h-6.206v-6.206h-6.206v-12.412h-6.168
		v-37.198h6.168v-12.375h6.206v-6.206h6.206v-6.206h12.412v6.206h-6.207v6.206h-6.205v12.375h-6.207v37.198h6.207v12.412h6.205
		v6.206h6.207v6.206H1323.152z M1335.564,293.065v-6.206h30.991v6.206H1335.564z M1335.564,386.043v-6.168h30.991v6.168H1335.564z
		 M1366.557,379.875v-6.206h6.206v-6.206h6.206v-12.412h6.168v-37.198h-6.168v-12.375h-6.206v-6.206h-6.206v-6.206h12.412v6.206
		h6.168v6.206h6.206v12.375h6.206v37.198h-6.206v12.412h-6.206v6.206h-6.168v6.206H1366.557z"/>
	<path fill="#2C2F24" stroke="#172625" stroke-miterlimit="10" d="M1411.505,386.043v-6.168h12.374v-86.81h-12.374v-6.206h68.19
		v12.412h6.207v12.375h-6.207v-6.168h-6.205v-6.206h-6.207v-6.206h-30.992v37.2h30.992v-12.412h6.207v30.992h-6.207V336.47h-30.992
		v43.405h12.412v6.168H1411.505z"/>
	<path fill="#2C2F24" stroke="#172625" stroke-miterlimit="10" d="M1566.49,386.043v-6.168h12.412v-86.81h-24.824v6.206h-6.207
		v6.206h-6.168v6.168h-6.168v-12.375h6.168v-18.618h6.168v6.206h80.604v-6.206h6.207v18.618h-6.207v12.375h-6.205v-18.581h-30.992
		v86.81h12.412v6.168H1566.49z"/>
	<path fill="#2C2F24" stroke="#172625" stroke-miterlimit="10" d="M1651.74,386.043v-6.168h12.375v-86.81h-12.375v-6.206h37.197
		v6.206h-12.41v37.2h43.404v-37.2h-12.412v-6.206h37.197v6.206h-12.412v86.81h12.412v6.168h-37.197v-6.168h12.412V336.47h-43.404
		v43.405h12.41v6.168H1651.74z"/>
	<path fill="#2C2F24" stroke="#172625" stroke-miterlimit="10" d="M1764.88,386.043v-6.168h12.373v-86.81h-12.373v-6.206h68.189
		v12.412h6.207v12.375h-6.207v-6.168h-6.205v-6.206h-6.207v-6.206h-30.992v37.2h30.992v-12.412h6.207v30.992h-6.207V336.47h-30.992
		v43.405h37.199v-6.206h6.205v-6.206h6.207v-6.206h6.168v12.412h-6.168v12.374H1764.88z"/>
	<path fill="#2C2F24" stroke="#172625" stroke-miterlimit="10" d="M1898.181,386.043v-6.168h12.373v-86.81h-12.373v-6.206h68.189
		v12.412h6.207v12.375h-6.207v-6.168h-6.205v-6.206h-6.207v-6.206h-30.992v37.2h30.992v-12.412h6.207v30.992h-6.207V336.47h-30.992
		v43.405h12.412v6.168H1898.181z"/>
	<path fill="#2C2F24" stroke="#172625" stroke-miterlimit="10" d="M2017.488,386.043v-6.168h-6.205v-6.206h-6.207v-12.412h-6.205
		v-68.191h-12.338v-6.206h37.16v6.206h-12.412v68.191h6.207v12.412h6.205v6.206h30.992v6.168H2017.488z M2067.099,361.257v-68.191
		h-12.412v-6.206h30.992v6.206h-12.412v68.191H2067.099z M2054.687,379.875v-6.206h6.205v6.206H2054.687z M2060.892,373.669v-12.412
		h6.207v12.412H2060.892z"/>
	<path fill="#2C2F24" stroke="#172625" stroke-miterlimit="10" d="M2130.589,386.043v-6.168h12.412v-86.81h-24.824v6.206h-6.205
		v6.206h-6.168v6.168h-6.168v-12.375h6.168v-18.618h6.168v6.206h80.604v-6.206h6.207v18.618h-6.207v12.375h-6.205v-18.581h-30.992
		v86.81h12.412v6.168H2130.589z"/>
	<path fill="#2C2F24" stroke="#172625" stroke-miterlimit="10" d="M2246.794,386.043v-6.168h-6.205v-6.206h-6.207v-12.412h-6.205
		v-68.191h-12.338v-6.206h37.162v6.206h-12.412v68.191h6.205v12.412h6.207v6.206h30.99v6.168H2246.794z M2296.406,361.257v-68.191
		h-12.412v-6.206h30.992v6.206h-12.412v68.191H2296.406z M2283.994,379.875v-6.206h6.205v6.206H2283.994z M2290.199,373.669v-12.412
		h6.207v12.412H2290.199z"/>
	<path fill="#2C2F24" stroke="#172625" stroke-miterlimit="10" d="M2332.044,386.043v-6.168h12.375v-86.81h-12.375v-6.206h61.984
		v6.206h6.207v6.206h6.205v30.994h-6.205v6.204h-6.207v6.207h-12.412v6.168h6.207v6.206h6.205v6.206h6.207v6.206h6.205v6.206h6.168
		v6.206h12.412v6.168h-24.785v-6.168h-6.207v-6.206h-6.205v-6.206h-6.207v-6.206h-6.205v-6.206h-6.168v-6.206h-6.207v-6.168h-6.205
		v37.198h12.412v6.168L2332.044,386.043L2332.044,386.043z M2387.824,336.47v-6.205h6.205v-30.993h-6.205v-6.206h-30.992v43.404
		H2387.824z"/>
	<path fill="#2C2F24" stroke="#172625" stroke-miterlimit="10" d="M2442.082,386.043v-6.168h12.373v-86.81h-12.373v-6.206h68.189
		v12.412h6.207v12.375h-6.207v-6.168h-6.205v-6.206h-6.207v-6.206h-30.992v37.2h30.992v-12.412h6.207v30.992h-6.207V336.47h-30.992
		v43.405h37.199v-6.206h6.205v-6.206h6.207v-6.206h6.168v12.412h-6.168v12.374H2442.082z"/>
	<path fill="#2C2F24" stroke="#172625" stroke-miterlimit="10" d="M2572.279,386.043v-6.168h12.338v-18.618h6.205v18.618h12.412
		v6.168H2572.279z M2621.814,386.043v-6.168h12.412v-18.618h-6.207v-6.206h-30.99v6.206h-6.207v-18.58h6.207v6.168h30.99v-6.168
		h-6.205v-18.619h-6.168v-18.58h-6.207V286.86h6.207v-6.206h6.168v24.824h6.205v18.58h6.207v18.619h6.205v18.58h6.207v18.618h12.375
		v6.168H2621.814z M2597.029,342.677v-18.619h6.205v18.619H2597.029z M2603.234,324.058v-18.58h6.205v18.58H2603.234z"/>
	<path fill="#2C2F24" stroke="#172625" stroke-miterlimit="10" d="M2676.072,386.043v-6.168h12.375v-86.81h-12.375v-6.206h61.984
		v6.206h6.207v6.206h6.205v30.994h-6.205v6.204h-6.207v6.207h-12.412v6.168h6.207v6.206h6.205v6.206h6.207v6.206h6.205v6.206h6.168
		v6.206h12.412v6.168h-24.785v-6.168h-6.207v-6.206h-6.205v-6.206h-6.207v-6.206h-6.205v-6.206h-6.17v-6.206h-6.205v-6.168h-6.207
		v37.198h12.412v6.168L2676.072,386.043L2676.072,386.043z M2731.851,336.47v-6.205h6.205v-30.993h-6.205v-6.206h-30.992v43.404
		H2731.851z"/>
	<path fill="#2C2F24" stroke="#172625" stroke-miterlimit="10" d="M2786.107,386.043v-6.168h12.375v-86.81h-12.375v-6.206h68.191
		v12.412h6.207v12.375h-6.207v-6.168h-6.205v-6.206h-6.207v-6.206h-30.992v37.2h30.992v-12.412h6.207v30.992h-6.207V336.47h-30.992
		v43.405h37.199v-6.206h6.205v-6.206h6.207v-6.206h6.168v12.412h-6.168v12.374H2786.107z"/>
	<path fill="#2C2F24" stroke="#172625" stroke-miterlimit="10" d="M728.839,532.343v-6.206h-6.206v-6.206h-6.206V507.52h-6.168
		V470.32h6.168v-12.374h6.206v-6.206h6.206v-6.206h12.412v6.206h-6.206v6.206h-6.206v12.374h-6.206v37.199h6.206v12.411h6.206v6.206
		h6.206v6.206H728.839z M790.824,464.114v-6.169h-6.168v-6.206h-6.206v-6.206h-37.199v-6.206h49.573v12.412h6.206v12.375H790.824z
		 M741.251,538.511v-6.168h37.199v-6.206h6.206v-6.206h6.168v-6.206h6.206v12.412h-6.206v12.374H741.251z"/>
	<path fill="#2C2F24" stroke="#172625" stroke-miterlimit="10" d="M817.192,538.511v-6.168h12.374v-86.81h-12.374v-6.206h37.197
		v6.206h-12.411v86.81h37.198v-6.206h6.206v-6.206h6.206v-6.206h6.168v12.412h-6.168v12.374H817.192z"/>
	<path fill="#2C2F24" stroke="#172625" stroke-miterlimit="10" d="M933.396,532.343v-6.206h-6.207v-6.206h-6.205V507.52h-6.168
		V470.32h6.168v-12.374h6.205v-6.206h6.207v-6.206h12.411v6.206h-6.206v6.206h-6.205v12.374h-6.207v37.199h6.207v12.411h6.205v6.206
		h6.206v6.206H933.396z M945.809,445.533v-6.206h30.993v6.206H945.809z M945.809,538.511v-6.168h30.993v6.168H945.809z
		 M976.801,532.343v-6.206h6.206v-6.206h6.206V507.52h6.168V470.32h-6.168v-12.374h-6.206v-6.206h-6.206v-6.206h12.412v6.206h6.168
		v6.206h6.206v12.374h6.206v37.199h-6.206v12.411h-6.206v6.206h-6.168v6.206H976.801z"/>
	<path fill="#2C2F24" stroke="#172625" stroke-miterlimit="10" d="M1034.124,538.511v-12.374h-6.168v-12.412h6.168v6.206h6.206
		v6.206h6.206v6.206h30.993v-6.206h6.206v-21.722h-6.206v-6.168h-12.375v-6.206h-12.412v-6.206h-12.412v-6.206h-6.206v-6.206h-6.168
		v-21.684h6.168v-6.206h6.206v-6.206h43.405v6.206h6.206v12.412h-6.206v-6.206h-6.206v-6.206h-30.993v6.206h-6.206v15.478h6.206
		v6.206h12.412v6.206h12.375v6.206h12.412v6.206h6.206v6.206h6.206v27.89h-6.206v6.206h-6.206v6.168H1034.124z"/>
	<path fill="#2C2F24" stroke="#172625" stroke-miterlimit="10" d="M1113.206,538.511v-6.168h12.374v-86.81h-12.374v-6.206h68.191
		v12.412h6.206v12.375h-6.206v-6.169h-6.206v-6.206h-6.206v-6.206h-30.993v37.197h30.993v-12.411h6.206v30.992h-6.206v-12.374
		h-30.993v43.404h37.199v-6.206h6.205v-6.206h6.207v-6.206h6.168v12.412h-6.168v12.374L1113.206,538.511L1113.206,538.511z"/>
	<path fill="#2C2F24" stroke="#172625" stroke-miterlimit="10" d="M1210.83,538.511v-6.168h12.374v-86.81h-12.374v-6.206h61.984
		v6.206h6.207v6.206h6.205v30.991h-6.205v6.207h-6.207v6.205h-12.411v6.169h6.206v6.206h6.206v6.206h6.206v6.206h6.206v6.206h6.168
		v6.206h12.411v6.168h-24.786v-6.168h-6.206v-6.206h-6.206v-6.206h-6.206v-6.206h-6.206v-6.206h-6.168v-6.206h-6.206v-6.169h-6.206
		v37.199h12.411v6.168L1210.83,538.511L1210.83,538.511z M1266.609,488.938v-6.206h6.206v-30.992h-6.206v-6.206h-30.993v43.404
		H1266.609z"/>
	<path fill="#2C2F24" stroke="#172625" stroke-miterlimit="10" d="M1384.395,538.511v-6.168h12.412v-86.81h-24.823v6.206h-6.206
		v6.206h-6.168v6.169h-6.168v-12.375h6.168v-18.618h6.168v6.206h80.603v-6.206h6.206v18.618h-6.206v12.375h-6.206v-18.581h-30.992
		v86.81h12.412v6.168H1384.395z"/>
	<path fill="#2C2F24" stroke="#172625" stroke-miterlimit="10" d="M1469.646,538.511v-6.168h12.373v-86.81h-12.373v-6.206h37.197
		v6.206h-12.412v37.197h43.404v-37.197h-12.412v-6.206h37.199v6.206h-12.412v86.81h12.412v6.168h-37.199v-6.168h12.412v-43.403
		h-43.404v43.403h12.412v6.168H1469.646z"/>
	<path fill="#2C2F24" stroke="#172625" stroke-miterlimit="10" d="M1579.681,538.511v-6.168h12.336v-18.618h6.207v18.618h12.412
		v6.168H1579.681z M1629.216,538.511v-6.168h12.412v-18.618h-6.207v-6.206h-30.992v6.206h-6.205v-18.581h6.205v6.169h30.992v-6.169
		h-6.205v-18.616h-6.168v-18.581h-6.207v-18.618h6.207v-6.206h6.168v24.824h6.205v18.581h6.207v18.616h6.205v18.581h6.207v18.618
		h12.373v6.168H1629.216z M1604.429,495.144v-18.616h6.207v18.616H1604.429z M1610.636,476.526v-18.581h6.205v18.581H1610.636z"/>
	<path fill="#2C2F24" stroke="#172625" stroke-miterlimit="10" d="M1683.474,538.511v-6.168h12.373v-86.81h-12.373v-6.206h30.992
		v12.412h6.205v12.375h6.168v12.412h6.207v12.411h6.205v12.374h6.207v12.412h6.205v12.412h6.207v-80.604h-12.412v-6.206h30.992
		v6.206h-12.412v92.978h-18.58v-12.374h-6.207v-12.412h-6.205v-12.412h-6.207v-12.374h-6.168v-12.411h-6.205v-12.412h-6.207v-12.375
		h-6.205v80.604h12.412v6.168H1683.474L1683.474,538.511z"/>
	<path fill="#2C2F24" stroke="#172625" stroke-miterlimit="10" d="M1857.039,538.511v-6.168h12.412v-86.81h-24.824v6.206h-6.205
		v6.206h-6.168v6.169h-6.168v-12.375h6.168v-18.618h6.168v6.206h80.604v-6.206h6.205v18.618h-6.205v12.375h-6.205v-18.581h-30.992
		v86.81h12.412v6.168H1857.039z"/>
	<path fill="#2C2F24" stroke="#172625" stroke-miterlimit="10" d="M1942.289,538.511v-6.168h12.375v-86.81h-12.375v-6.206h37.197
		v6.206h-12.41v37.197h43.404v-37.197h-12.412v-6.206h37.197v6.206h-12.412v86.81h12.412v6.168h-37.197v-6.168h12.412v-43.403
		h-43.404v43.403h12.41v6.168H1942.289z"/>
	<path fill="#2C2F24" stroke="#172625" stroke-miterlimit="10" d="M2055.429,538.511v-6.168h12.373v-86.81h-12.373v-6.206h68.189
		v12.412h6.207v12.375h-6.207v-6.169h-6.205v-6.206h-6.207v-6.206h-30.992v37.197h30.992v-12.411h6.207v30.992h-6.207v-12.374
		h-30.992v43.404h37.199v-6.206h6.205v-6.206h6.207v-6.206h6.168v12.412h-6.168v12.374L2055.429,538.511L2055.429,538.511z"/>
	<path fill="#2C2F24" stroke="#172625" stroke-miterlimit="10" d="M2171.595,538.511v-6.168h12.412v-37.199h-6.205v-12.411h-6.207
		V470.32h-6.205v-12.374h-6.207v-12.412h-12.336v-6.206h37.16v6.206h-12.412v12.412h6.207v12.374h6.205v12.412h6.207v12.411h6.168
		v37.199h12.412v6.168H2171.595z M2196.382,495.144v-12.411h6.205v12.411H2196.382z M2215,457.945v-12.412h-12.412v-6.206h30.992
		v6.206h-12.373v12.412H2215z M2202.587,482.731v-12.412h6.207v12.412H2202.587z M2208.794,470.319v-12.374H2215v12.374H2208.794z"
		/>
	<path fill="#2C2F24" stroke="#172625" stroke-miterlimit="10" d="M2280.111,538.511v-6.168h12.336v-18.618h6.207v18.618h12.412
		v6.168H2280.111z M2329.646,538.511v-6.168h12.412v-18.618h-6.207v-6.206h-30.99v6.206h-6.207v-18.581h6.207v6.169h30.99v-6.169
		h-6.205v-18.616h-6.168v-18.581h-6.207v-18.618h6.207v-6.206h6.168v24.824h6.205v18.581h6.207v18.616h6.205v18.581h6.207v18.618
		h12.373v6.168H2329.646z M2304.859,495.144v-18.616h6.205v18.616H2304.859z M2311.064,476.526v-18.581h6.207v18.581H2311.064z"/>
	<path fill="#2C2F24" stroke="#172625" stroke-miterlimit="10" d="M2383.904,538.511v-6.168h12.373v-86.81h-12.373v-6.206h61.984
		v6.206h6.205v6.206h6.207v30.991h-6.207v6.207h-6.205v6.205h-30.992v-6.205h24.785v-6.207h6.207v-30.991h-6.207v-6.206h-30.992
		v86.81h12.412v6.168H2383.904z"/>
	<path fill="#2C2F24" stroke="#172625" stroke-miterlimit="10" d="M2475.359,538.511v-6.168h12.373v-86.81h-12.373v-6.206h61.984
		v6.206h6.207v6.206h6.205v30.991h-6.205v6.207h-6.207v6.205h-30.992v-6.205h24.787v-6.207h6.205v-30.991h-6.205v-6.206h-30.994
		v86.81h12.412v6.168H2475.359z"/>
	<path fill="#2C2F24" stroke="#172625" stroke-miterlimit="10" d="M2566.814,538.511v-6.168h12.375v-86.81h-12.375v-6.206h68.191
		v12.412h6.207v12.375h-6.207v-6.169h-6.205v-6.206h-6.207v-6.206h-30.992v37.197h30.992v-12.411h6.207v30.992h-6.207v-12.374
		h-30.992v43.404h37.199v-6.206h6.205v-6.206h6.207v-6.206h6.168v12.412h-6.168v12.374L2566.814,538.511L2566.814,538.511z"/>
	<path fill="#2C2F24" stroke="#172625" stroke-miterlimit="10" d="M2664.439,538.511v-6.168h12.336v-18.618h6.205v18.618h12.412
		v6.168H2664.439z M2713.974,538.511v-6.168h12.412v-18.618h-6.207v-6.206h-30.99v6.206h-6.207v-18.581h6.207v6.169h30.99v-6.169
		h-6.205v-18.616h-6.168v-18.581h-6.207v-18.618h6.207v-6.206h6.168v24.824h6.205v18.581h6.207v18.616h6.205v18.581h6.207v18.618
		h12.373v6.168H2713.974z M2689.187,495.144v-18.616h6.207v18.616H2689.187z M2695.394,476.526v-18.581h6.205v18.581H2695.394z"/>
	<path fill="#2C2F24" stroke="#172625" stroke-miterlimit="10" d="M2768.23,538.511v-6.168h12.375v-86.81h-12.375v-6.206h61.986
		v6.206h6.205v6.206h6.207v30.991h-6.207v6.207h-6.205v6.205h-12.412v6.169h6.205v6.206h6.207v6.206h6.205v6.206h6.207v6.206h6.168
		v6.206h12.412v6.168h-24.787v-6.168h-6.205v-6.206h-6.207v-6.206h-6.205v-6.206h-6.207v-6.206h-6.168v-6.206h-6.207v-6.169h-6.205
		v37.199h12.412v6.168L2768.23,538.511L2768.23,538.511z M2824.009,488.938v-6.206h6.207v-30.992h-6.207v-6.206h-30.992v43.404
		H2824.009z"/>
</g>
<g>
	<rect x="608.017" y="4.5" width="9" height="607.017"/>
</g>
<g>
	<g>
		<path fill="#2C2F24" d="M1303.666,161.519v-6.193h12.424V68.167h-12.424v-6.231h62.235v6.231h6.231v6.231h6.231v31.117h-6.231
			v6.231h-6.231v6.231h-31.117v-6.231h24.886v-6.231h6.231V74.397h-6.231v-6.231h-31.118v87.159h12.462v6.193H1303.666z"/>
		<path fill="#172625" d="M1343.265,163.769h-41.849v-10.693h12.424V70.417h-12.424V59.685h66.735v6.231h6.231v6.231h6.231v35.617
			h-6.231v6.231h-6.231v6.231h-35.617v-10.731h24.886v-6.231h6.231V76.647h-6.231v-6.231h-26.618v82.659h12.462V163.769z
			 M1305.916,159.269h32.849v-1.693h-12.462V65.917h35.618v6.231h6.231v35.617h-6.231v6.231h-24.886v1.731h26.617v-6.231h6.231
			v-6.231h6.231V76.647h-6.231v-6.231h-6.231v-6.231h-57.735v1.731h12.424v91.659h-12.424V159.269z"/>
	</g>
	<g>
		<path fill="#2C2F24" d="M1425.035,155.326v-6.231h-6.231v-6.231h-6.231v-12.462h-6.193V93.053h6.193V80.628h6.231v-6.231h6.231
			v-6.231h12.462v6.231h-6.231v6.231h-6.231v12.424h-6.231v37.349h6.231v12.462h6.231v6.231h6.231v6.231H1425.035z M1437.497,68.167
			v-6.231h31.118v6.231H1437.497z M1437.497,161.519v-6.193h31.118v6.193H1437.497z M1468.615,155.326v-6.231h6.231v-6.231h6.231
			v-12.462h6.193V93.053h-6.193V80.628h-6.231v-6.231h-6.231v-6.231h12.462v6.231h6.193v6.231h6.23v12.424h6.231v37.349h-6.231
			v12.462h-6.23v6.231h-6.193v6.231H1468.615z"/>
		<path fill="#172625" d="M1470.865,163.769h-35.618v-6.193h-12.462v-6.231h-6.231v-6.231h-6.231v-12.462h-6.193V90.803h6.193
			V78.378h6.231v-6.231h6.231v-6.231h12.462v-6.231h35.618v6.231h12.462v6.231h6.193v6.231h6.23v12.424h6.231v41.849h-6.231v12.462
			h-6.23v6.231h-6.193v6.231h-12.462V163.769z M1439.747,159.269h26.618v-1.693h-26.618V159.269z M1470.865,153.076h7.962v-6.231
			h6.193v-6.231h6.23v-12.462h6.231V95.303h-6.231V82.878h-6.23v-6.231h-6.193v-6.231h-7.962v1.731h6.231v6.231h6.231v12.424h6.193
			v41.849h-6.193v12.462h-6.231v6.231h-6.231V153.076z M1439.747,153.076h26.618v-6.231h6.231v-6.231h6.231v-12.462h6.193V95.303
			h-6.193V82.878h-6.231v-6.231h-6.231v-6.231h-26.618v6.231h-6.231v6.231h-6.231v12.424h-6.231v32.849h6.231v12.462h6.231v6.231
			h6.231V153.076z M1427.285,153.076h7.962v-1.731h-6.231v-6.231h-6.231v-12.462h-6.231V90.803h6.231V78.378h6.231v-6.231h6.231
			v-1.731h-7.962v6.231h-6.231v6.231h-6.231v12.424h-6.193v32.849h6.193v12.462h6.231v6.231h6.231V153.076z M1439.747,65.917h26.618
			v-1.731h-26.618V65.917z"/>
	</g>
	<g>
		<path fill="#2C2F24" d="M1552.596,161.519v-6.193h12.462V68.167h-24.924v6.231h-6.231v6.231h-6.193v6.193h-6.192V74.397h6.192
			V55.704h6.193v6.231h80.928v-6.231h6.231v18.693h-6.231v12.424h-6.23V68.167h-31.117v87.159h12.462v6.193H1552.596z"/>
		<path fill="#172625" d="M1592.195,163.769h-41.849v-10.693h12.462V70.417h-20.424v6.231h-6.231v6.231h-6.193v6.193h-10.692V72.147
			h6.192V53.454h10.693v6.231h76.428v-6.231h10.731v23.193h-6.231v12.424h-10.73V70.417h-26.617v82.659h12.462V163.769z
			 M1554.846,159.269h32.849v-1.693h-12.462V65.917h35.617v18.655h1.73V72.147h6.231V57.954h-1.731v6.231h-85.428v-6.231h-1.693
			v18.693h-6.192v7.924h1.692v-6.193h6.193v-6.231h6.231v-6.231h29.424v91.659h-12.462V159.269z"/>
	</g>
	<g>
		<path fill="#2C2F24" d="M1645.961,161.519v-6.193h12.424V68.167h-12.424v-6.231h68.466v12.462h6.23v12.424h-6.23v-6.193h-6.231
			v-6.231h-6.231v-6.231h-31.117v37.348h31.117V93.053h6.231v31.117h-6.231v-12.424h-31.117v43.58h37.349v-6.231h6.231v-6.231h6.23
			v-6.231h6.193v12.462h-6.193v12.424H1645.961z"/>
		<path fill="#172625" d="M1722.908,163.769h-79.196v-10.693h12.424V70.417h-12.424V59.685h72.966v12.462h6.23v16.924h-10.73v-6.193
			h-6.231v-6.231h-6.231v-6.231h-26.617v32.848h26.617V90.803h10.731v35.617h-10.731v-12.424h-26.617v39.08h32.849v-6.231h6.231
			v-6.231h6.23v-6.231h10.693v16.962h-6.193V163.769z M1648.211,159.269h70.196v-12.424h6.193v-7.962h-1.693v6.231h-6.23v6.231
			h-6.231v6.231h-41.849v-48.08h35.617v12.424h1.731V95.303h-1.731v12.462h-35.617V65.917h35.617v6.231h6.231v6.231h6.231v6.193
			h1.73v-7.924h-6.23V64.185h-63.966v1.731h12.424v91.659h-12.424V159.269z"/>
	</g>
	<g>
		<path fill="#2C2F24" d="M1751.751,161.519v-6.193h12.424V68.167h-12.424v-6.231h31.117v12.462h6.23v12.424h6.193v12.462h6.231
			v12.462h6.23v12.424h6.231v12.462h6.231v12.462h6.23V68.167h-12.462v-6.231h31.117v6.231h-12.462v93.352h-18.655v-12.424h-6.231
			v-12.462h-6.23V124.17h-6.231v-12.424h-6.193V99.284h-6.23V86.822h-6.231V74.397h-6.23v80.928h12.462v6.193H1751.751z"/>
		<path fill="#172625" d="M1834.891,163.769h-23.155v-12.424h-6.231v-12.462h-6.23V126.42h-6.231v-12.424h-6.193v-12.462h-6.23
			V89.072h-6.231V76.647h-1.73v76.428h12.462v10.693h-35.617v-10.693h12.424V70.417h-12.424V59.685h35.617v12.462h6.23v12.424h6.193
			v12.462h6.231v12.462h6.23v12.424h6.231v12.462h6.231v12.462h1.73V70.417h-12.462V59.685h35.617v10.731h-12.462V163.769z
			 M1816.236,159.269h14.155V65.917h12.462v-1.731h-26.617v1.731h12.462v85.428h-10.73v-12.462h-6.231V126.42h-6.231v-12.424h-6.23
			v-12.462h-6.231V89.072h-6.193V76.647h-6.23V64.185h-26.617v1.731h12.424v91.659h-12.424v1.693h26.617v-1.693h-12.462V72.147
			h10.73v12.424h6.231v12.462h6.23v12.462h6.193v12.424h6.231v12.462h6.23v12.462h6.231V159.269z"/>
	</g>
	<g>
		<path fill="#2C2F24" d="M1901.083,161.519v-6.193h12.462V68.167h-24.924v6.231h-6.231v6.231h-6.193v6.193h-6.192V74.397h6.192
			V55.704h6.193v6.231h80.928v-6.231h6.231v18.693h-6.231v12.424h-6.23V68.167h-31.117v87.159h12.462v6.193H1901.083z"/>
		<path fill="#172625" d="M1940.681,163.769h-41.849v-10.693h12.462V70.417h-20.424v6.231h-6.231v6.231h-6.193v6.193h-10.692V72.147
			h6.192V53.454h10.693v6.231h76.428v-6.231h10.731v23.193h-6.231v12.424h-10.73V70.417h-26.617v82.659h12.462V163.769z
			 M1903.333,159.269h32.849v-1.693h-12.462V65.917h35.617v18.655h1.73V72.147h6.231V57.954h-1.731v6.231h-85.428v-6.231h-1.693
			v18.693h-6.192v7.924h1.692v-6.193h6.193v-6.231h6.231v-6.231h29.424v91.659h-12.462V159.269z"/>
	</g>
	<g>
		<path fill="#2C2F24" d="M1994.449,161.519v-6.193h12.424V68.167h-12.424v-6.231h37.348v6.231h-12.462v87.159h12.462v6.193
			H1994.449z"/>
		<path fill="#172625" d="M2034.046,163.769h-41.848v-10.693h12.424V70.417h-12.424V59.685h41.848v10.731h-12.462v82.659h12.462
			V163.769z M1996.699,159.269h32.848v-1.693h-12.462V65.917h12.462v-1.731h-32.848v1.731h12.424v91.659h-12.424V159.269z"/>
	</g>
	<g>
		<path fill="#2C2F24" d="M2056.7,161.519v-6.193h12.387v-18.693h6.23v18.693h12.463v6.193H2056.7z M2106.435,161.519v-6.193h12.462
			v-18.693h-6.231v-6.231h-31.117v6.231h-6.231v-18.655h6.231v6.193h31.117v-6.193h-6.23V99.284h-6.193V80.628h-6.231V61.935h6.231
			v-6.231h6.193v24.924h6.23v18.655h6.231v18.693h6.23v18.655h6.231v18.693h12.424v6.193H2106.435z M2081.548,117.977V99.284h6.231
			v18.693H2081.548z M2087.78,99.284V80.628h6.23v18.655H2087.78z"/>
		<path fill="#172625" d="M2146.033,163.769h-41.848v-10.693h12.462v-14.193h-6.231v-6.231h-26.617v6.231h-6.231v14.193h12.463
			v10.693h-35.58v-10.693h12.387v-18.693h6.23v-18.655h6.231V97.034h6.231V78.378h6.23V59.685h6.231v-6.231h10.693v24.924h6.23
			v18.655h6.231v18.693h6.23v18.655h6.231v18.693h12.424V163.769z M2108.685,159.269h32.848v-1.693h-12.424v-18.693h-6.231v-18.655
			h-6.23v-18.693h-6.231V82.878h-6.23V57.954h-1.693v6.231h-6.231v14.193h6.231v18.655h6.193v18.693h6.23v10.693h-35.617v-6.193
			h-1.731v14.155h1.731v-6.231h35.617v6.231h6.231v23.193h-12.462V159.269z M2058.95,159.269h26.58v-1.693h-12.463v-18.693h-1.73
			v18.693h-12.387V159.269z M2083.798,121.92h26.617v-1.693h-6.23v-18.693h-6.193V82.878h-1.731v18.655h-6.23v18.693h-6.231V121.92z
			 M2083.798,115.727h1.731v-14.193h-1.731V115.727z M2090.03,97.034h1.73V82.878h-1.73V97.034z"/>
	</g>
	<g>
		<path fill="#2C2F24" d="M2168.684,161.519v-6.193h12.424V68.167h-12.424v-6.231h37.348v6.231h-12.462v87.159h37.349v-6.231h6.231
			v-6.231h6.23v-6.231h6.193v12.462h-6.193v12.424H2168.684z"/>
		<path fill="#172625" d="M2245.63,163.769h-79.196v-10.693h12.424V70.417h-12.424V59.685h41.848v10.731h-12.462v82.659h32.849
			v-6.231h6.231v-6.231h6.23v-6.231h10.693v16.962h-6.193V163.769z M2170.934,159.269h70.196v-12.424h6.193v-7.962h-1.693v6.231
			h-6.23v6.231h-6.231v6.231h-41.849V65.917h12.462v-1.731h-32.848v1.731h12.424v91.659h-12.424V159.269z"/>
	</g>
</g>
</svg>
