<?xml version="1.0" encoding="utf-8"?>
<!-- Generator: Adobe Illustrator 16.0.4, SVG Export Plug-In . SVG Version: 6.00 Build 0)  -->
<!DOCTYPE svg PUBLIC "-//W3C//DTD SVG 1.1//EN" "http://www.w3.org/Graphics/SVG/1.1/DTD/svg11.dtd">
<svg version="1.1" id="Layer_1" xmlns="http://www.w3.org/2000/svg" xmlns:xlink="http://www.w3.org/1999/xlink" x="0px" y="0px"
	 width="19.785px" height="377.461px" viewBox="0 0 19.785 377.461" enable-background="new 0 0 19.785 377.461"
	 xml:space="preserve">
<line opacity="0.5" fill="none" stroke="#2368A3" stroke-miterlimit="10" x1="0" y1="0.5" x2="19.785" y2="0.5"/>
<g opacity="0.5">
	<line fill="none" stroke="#0B3638" stroke-width="0.25" stroke-miterlimit="10" x1="0" y1="63.336" x2="19.785" y2="63.336"/>
	<line fill="none" stroke="#0B3638" stroke-width="0.25" stroke-miterlimit="10" x1="0" y1="87.49" x2="19.785" y2="87.49"/>
	<line fill="none" stroke="#0B3638" stroke-width="0.25" stroke-miterlimit="10" x1="0" y1="111.644" x2="19.785" y2="111.644"/>
	<line fill="none" stroke="#0B3638" stroke-width="0.25" stroke-miterlimit="10" x1="0" y1="135.798" x2="19.785" y2="135.798"/>
	<line fill="none" stroke="#0B3638" stroke-width="0.25" stroke-miterlimit="10" x1="0" y1="159.951" x2="19.785" y2="159.951"/>
	<line fill="none" stroke="#0B3638" stroke-width="0.25" stroke-miterlimit="10" x1="0" y1="184.105" x2="19.785" y2="184.105"/>
	<line fill="none" stroke="#0B3638" stroke-width="0.25" stroke-miterlimit="10" x1="0" y1="208.259" x2="19.785" y2="208.259"/>
	<line fill="none" stroke="#0B3638" stroke-width="0.25" stroke-miterlimit="10" x1="0" y1="232.413" x2="19.785" y2="232.413"/>
	<line fill="none" stroke="#0B3638" stroke-width="0.25" stroke-miterlimit="10" x1="0" y1="256.566" x2="19.785" y2="256.566"/>
	<line fill="none" stroke="#0B3638" stroke-width="0.25" stroke-miterlimit="10" x1="0" y1="280.721" x2="19.785" y2="280.721"/>
	<line fill="none" stroke="#0B3638" stroke-width="0.25" stroke-miterlimit="10" x1="0" y1="304.874" x2="19.785" y2="304.874"/>
	<line fill="none" stroke="#0B3638" stroke-width="0.25" stroke-miterlimit="10" x1="0" y1="329.027" x2="19.785" y2="329.027"/>
	<line fill="none" stroke="#0B3638" stroke-width="0.25" stroke-miterlimit="10" x1="0" y1="353.182" x2="19.785" y2="353.182"/>
	<line fill="none" stroke="#0B3638" stroke-width="0.25" stroke-miterlimit="10" x1="0" y1="377.336" x2="19.785" y2="377.336"/>
</g>
</svg>
