<?xml version="1.0" standalone="no"?>
<!DOCTYPE svg PUBLIC "-//W3C//DTD SVG 20010904//EN"
 "http://www.w3.org/TR/2001/REC-SVG-20010904/DTD/svg10.dtd">
<svg version="1.0" xmlns="http://www.w3.org/2000/svg"
 width="260.000000pt" height="260.000000pt" viewBox="0 0 260.000000 260.000000"
 preserveAspectRatio="xMidYMid meet">
<metadata>
Created by potrace 1.14, written by Peter Selinger 2001-2017
</metadata>
<g transform="translate(0.000000,260.000000) scale(0.100000,-0.100000)"
fill="#000000" stroke="none">
<path d="M0 1300 l0 -1300 1300 0 1300 0 0 1300 0 1300 -1300 0 -1300 0 0
-1300z m967 997 l28 -27 3 -777 c2 -563 5 -780 14 -790 8 -10 30 -13 72 -11
l61 3 5 775 c4 634 8 780 19 802 30 58 29 58 610 58 292 0 531 -3 531 -7 0 -7
-477 -2005 -486 -2035 -5 -17 -39 -18 -524 -18 -485 0 -519 1 -524 18 -9 31
-486 2028 -486 2035 0 4 146 6 325 5 l325 -3 27 -28z"/>
</g>
</svg>
