<?xml version="1.0" encoding="utf-8"?>
<!-- Generator: Adobe Illustrator 16.0.4, SVG Export Plug-In . SVG Version: 6.00 Build 0)  -->
<!DOCTYPE svg PUBLIC "-//W3C//DTD SVG 1.1//EN" "http://www.w3.org/Graphics/SVG/1.1/DTD/svg11.dtd">
<svg version="1.1" id="Layer_1" xmlns="http://www.w3.org/2000/svg" xmlns:xlink="http://www.w3.org/1999/xlink" x="0px" y="0px"
	 width="2820.845px" height="737.913px" viewBox="0 0 2820.845 737.913" enable-background="new 0 0 2820.845 737.913"
	 xml:space="preserve">
<g>
	<path fill="#2C2F24" d="M186.813,719.231L0,18.682h231.649c24.286,0,41.099,16.813,41.099,41.099v503.462
		c0,8.406,5.604,14.01,14.011,14.01h28.022c8.406,0,14.011-5.604,14.011-14.01V59.78c0-24.286,16.813-41.099,41.099-41.099h399.781
		L582.858,719.231H186.813z"/>
	<path fill="#2C2F24" d="M854.655,719.231c-33.626,0-66.319-33.625-66.319-66.318V85c0-32.692,32.692-66.318,66.319-66.318h447.418
		v215.769h-262.473c-10.275,0-17.748,9.341-17.748,17.748v16.813c0,10.275,7.473,19.615,17.748,19.615h184.945
		c20.55,0,40.165,18.682,40.165,38.297v44.835c0,19.615-19.615,38.297-40.165,38.297h-184.945
		c-10.275,0-17.748,10.275-17.748,19.615v46.703c0,9.342,7.473,17.748,17.748,17.748h262.473v225.109H854.655z"/>
	<path fill="#2C2F24" d="M1348.766,719.231V18.682h651.979c33.627,0,66.318,33.626,66.318,66.318v280.219
		c0,33.627-32.691,66.32-66.318,66.32h-204.561c-5.605,0-12.143,4.67-12.143,11.209v29.889c0,6.539,6.537,13.078,12.143,13.078
		h153.186l159.727,233.516h-468.902V550.165c0-10.273-8.406-18.68-17.746-18.68h-20.551c-9.34,0-19.615,8.406-19.615,18.68v169.066
		H1348.766z M1800.854,268.077c8.406,0,16.812-8.407,16.812-16.813v-22.418c0-8.406-8.406-14.945-16.812-14.945h-203.627
		c-8.406,0-14.945,6.539-14.945,14.945v22.418c0,8.406,6.539,16.813,14.945,16.813H1800.854z"/>
	<path fill="#2C2F24" d="M2820.845,737.913l-468.902-178.406v139.176c0,12.143-8.406,20.549-20.549,20.549h-192.418
		c-12.143,0-20.549-8.406-20.549-20.549V0l468.9,193.352V39.231c0-12.143,8.406-20.549,20.549-20.549h192.418
		c12.143,0,20.551,8.406,20.551,20.549V737.913z"/>
</g>
</svg>
