<?xml version="1.0" encoding="utf-8"?>
<!-- Generator: Adobe Illustrator 16.0.4, SVG Export Plug-In . SVG Version: 6.00 Build 0)  -->
<!DOCTYPE svg PUBLIC "-//W3C//DTD SVG 1.1//EN" "http://www.w3.org/Graphics/SVG/1.1/DTD/svg11.dtd">
<svg version="1.1" id="Layer_1" xmlns="http://www.w3.org/2000/svg" xmlns:xlink="http://www.w3.org/1999/xlink" x="0px" y="0px"
	 width="69.784px" height="69.791px" viewBox="0 0 69.784 69.791" enable-background="new 0 0 69.784 69.791" xml:space="preserve">
<path fill="#E6D111" d="M38.905,34.896L68.953,4.847c1.108-1.109,1.108-2.906,0-4.014c-1.109-1.11-2.906-1.11-4.015,0L34.892,30.881
	L4.845,0.833c-1.108-1.11-2.905-1.11-4.015,0c-1.107,1.108-1.107,2.905,0,4.014l30.047,30.049L0.83,64.945
	c-1.107,1.109-1.107,2.906,0,4.014c0.555,0.555,1.281,0.832,2.008,0.832c0.728,0,1.453-0.277,2.007-0.832L34.892,38.91
	l30.047,30.049c0.555,0.555,1.279,0.832,2.009,0.832c0.726,0,1.451-0.277,2.006-0.832c1.108-1.108,1.108-2.905,0-4.014
	L38.905,34.896z"/>
</svg>
